<svg width="0" height="0" class="hidden">
  <symbol fill="none" xmlns="http://www.w3.org/2000/svg" viewBox="0 0 8 8" id="star">
    <title>Star</title>
    <path fill-rule="evenodd" clip-rule="evenodd" d="M4 .333c.127 0 .243.072.299.186l.952 1.93 2.13.311a.333.333 0 0 1 .185.569l-1.541 1.5.364 2.121a.333.333 0 0 1-.484.352L4 6.3 2.095 7.302a.333.333 0 0 1-.483-.352l.363-2.12-1.54-1.501a.333.333 0 0 1 .184-.569l2.13-.311L3.7.519A.333.333 0 0 1 4 .333ZM4 1.42 3.269 2.9a.333.333 0 0 1-.25.183l-1.636.24 1.183 1.152a.333.333 0 0 1 .096.295l-.28 1.627 1.463-.769a.333.333 0 0 1 .31 0l1.462.77-.279-1.628a.333.333 0 0 1 .096-.295l1.183-1.153-1.635-.239a.333.333 0 0 1-.25-.182L4 1.42Z" fill="#F2994A"></path>
    <path d="M2.333 5 1 3l2-.333L4 1l1 1.667 2 .666-1.333 1.334L6 7 4 6 2 7l.333-2Z" fill="#F2994A"></path>
  </symbol>
  <symbol fill="none" xmlns="http://www.w3.org/2000/svg" viewBox="0 0 14 14" id="user">
    <title>Guest</title>
    <path fill-rule="evenodd" clip-rule="evenodd" d="M2.604 9.02a2.917 2.917 0 0 1 2.063-.853h4.666a2.917 2.917 0 0 1 2.917 2.916v1.167a.583.583 0 1 1-1.167 0v-1.167a1.75 1.75 0 0 0-1.75-1.75H4.667a1.75 1.75 0 0 0-1.75 1.75v1.167a.583.583 0 1 1-1.167 0v-1.167c0-.773.307-1.515.854-2.062ZM7 2.333a1.75 1.75 0 1 0 0 3.5 1.75 1.75 0 0 0 0-3.5Zm-2.917 1.75a2.917 2.917 0 1 1 5.834 0 2.917 2.917 0 0 1-5.834 0Z" fill="#fff"></path>
  </symbol>
  <symbol fill="none" xmlns="http://www.w3.org/2000/svg" viewBox="0 0 14 14" id="home">
    <title>Room</title>
    <path fill-rule="evenodd" clip-rule="evenodd" d="M6.642.706a.583.583 0 0 1 .716 0l5.25 4.084c.142.11.225.28.225.46v6.417a1.75 1.75 0 0 1-1.75 1.75H2.917a1.75 1.75 0 0 1-1.75-1.75V5.25c0-.18.083-.35.225-.46L6.642.706Zm-4.309 4.83v6.13a.583.583 0 0 0 .584.584h8.166a.583.583 0 0 0 .584-.583V5.535L7 1.905l-4.667 3.63Z" fill="#fff"></path>
    <path fill-rule="evenodd" clip-rule="evenodd" d="M4.667 7c0-.322.26-.583.583-.583h3.5c.322 0 .583.26.583.583v5.833a.583.583 0 1 1-1.166 0v-5.25H5.833v5.25a.583.583 0 1 1-1.166 0V7Z" fill="#fff"></path>
  </symbol>
  <symbol xmlns="http://www.w3.org/2000/svg" viewBox="0 0 14 14" id="phone">
    <title>Phone call</title>
    <path d="M11.667 13.358h-.175c-1.867-.233-3.734-.875-5.309-1.866a12.267 12.267 0 0 1-3.675-3.675A11.617 11.617 0 0 1 .642 2.508c0-.466.116-.933.408-1.283.292-.35.7-.583 1.167-.642h1.925A1.76 1.76 0 0 1 5.892 2.1c.058.525.175 1.05.35 1.517.233.641.058 1.341-.409 1.866l-.408.409c.7 1.05 1.575 1.983 2.683 2.683l.409-.408a1.823 1.823 0 0 1 1.866-.409 6.39 6.39 0 0 0 1.517.35 1.761 1.761 0 0 1 1.517 1.75v1.75c0 .467-.175.934-.525 1.225-.35.292-.759.525-1.225.525ZM4.142 1.75h-1.75c-.175 0-.35.117-.467.233-.058.117-.117.234-.117.409A10.972 10.972 0 0 0 3.5 7.175c.875 1.342 1.983 2.508 3.325 3.325a10.973 10.973 0 0 0 4.783 1.692c.234 0 .35-.059.467-.175a.53.53 0 0 0 .175-.409v-1.75c0-.291-.233-.525-.525-.583-.583-.058-1.167-.233-1.75-.467-.233-.058-.467-.058-.642.117l-.758.758a.62.62 0 0 1-.7.117 9.572 9.572 0 0 1-3.733-3.733c-.059-.234 0-.525.175-.7l.758-.759c.117-.116.175-.408.117-.583-.234-.583-.35-1.167-.467-1.75 0-.292-.292-.525-.583-.525Zm6.941 4.083a.568.568 0 0 1-.583-.466c-.175-.934-.933-1.634-1.867-1.867a.605.605 0 0 1-.466-.7.605.605 0 0 1 .7-.467c1.4.292 2.508 1.342 2.741 2.742.059.292-.116.642-.466.7 0 0 0 .058-.059.058Zm2.334-.058c-.292 0-.525-.233-.584-.525-.233-2.158-1.925-3.85-4.141-4.142a.683.683 0 0 1-.525-.641c0-.292.35-.525.641-.525 2.742.291 4.842 2.391 5.134 5.133.058.292-.175.583-.525.642.058.058 0 .058 0 .058Z"></path>
  </symbol>
  <symbol xmlns="http://www.w3.org/2000/svg" viewBox="0 0 10 18" id="arrow">
    <title>Arrow</title>
    <path d="M9.634.616a1.25 1.25 0 0 1 0 1.768L3.018 9l6.616 6.616a1.25 1.25 0 0 1-1.768 1.768l-7.5-7.5a1.25 1.25 0 0 1 0-1.768l7.5-7.5a1.25 1.25 0 0 1 1.768 0Z"></path>
  </symbol>
  <symbol xmlns="http://www.w3.org/2000/svg" viewBox="0 0 14 14" id="map-pin">
    <path d="M7 1.167a4.667 4.667 0 0 0-4.667 4.666c0 1.808 1.176 3.561 2.465 4.922A17.178 17.178 0 0 0 7 12.701a17.178 17.178 0 0 0 2.202-1.946c1.289-1.36 2.465-3.114 2.465-4.922A4.667 4.667 0 0 0 7 1.167Zm0 12.25-.324.485-.002-.001-.003-.003-.014-.009-.048-.033a16.67 16.67 0 0 1-.793-.594 18.328 18.328 0 0 1-1.865-1.705c-1.335-1.41-2.784-3.448-2.784-5.724a5.833 5.833 0 0 1 11.666 0c0 2.276-1.449 4.315-2.785 5.724a18.325 18.325 0 0 1-2.657 2.299l-.048.033-.014.01-.003.002h-.002L7 13.418Zm0 0 .324.485a.584.584 0 0 1-.648 0L7 13.417Z"></path>
    <path d="M7 4.667A1.167 1.167 0 1 0 7 7a1.167 1.167 0 0 0 0-2.333ZM4.667 5.833a2.333 2.333 0 1 1 4.666 0 2.333 2.333 0 0 1-4.666 0Z"></path>
  </symbol>
</svg>
