<svg width="0" height="0" class="hidden">
  <symbol xmlns="http://www.w3.org/2000/svg" viewBox="0 0 20 20" id="instagram">
    <title>Icon: Instagram</title>
    <path d="M10 20a9.811 9.811 0 0 1-3.887-.791c-1.237-.527-2.301-1.237-3.193-2.129-.892-.892-1.602-1.956-2.129-3.193A9.81 9.81 0 0 1 0 10c0-1.354.264-2.65.791-3.887S2.028 3.812 2.92 2.92C3.812 2.028 4.876 1.318 6.113.79A9.81 9.81 0 0 1 10 0a9.81 9.81 0 0 1 3.887.791c1.237.527 2.301 1.237 3.193 2.129.892.892 1.602 1.956 2.129 3.193A9.811 9.811 0 0 1 20 10c0 1.354-.264 2.65-.791 3.887s-1.237 2.301-2.129 3.193c-.892.892-1.956 1.602-3.193 2.129A9.811 9.811 0 0 1 10 20Zm5-13.75c0-.339-.12-.632-.361-.879A1.192 1.192 0 0 0 13.75 5h-7.5c-.339 0-.632.124-.879.371S5 5.911 5 6.25V7.5h2.227c.755-.833 1.68-1.25 2.773-1.25 1.094 0 2.018.417 2.773 1.25H15V6.25ZM7.5 10c0 .69.244 1.28.732 1.768A2.409 2.409 0 0 0 10 12.5c.69 0 1.28-.244 1.768-.732A2.409 2.409 0 0 0 12.5 10c0-.69-.244-1.28-.732-1.768A2.409 2.409 0 0 0 10 7.5c-.69 0-1.28.244-1.768.732A2.409 2.409 0 0 0 7.5 10ZM15 8.75h-1.484c.156.43.234.846.234 1.25 0 1.042-.365 1.927-1.094 2.656-.729.73-1.614 1.094-2.656 1.094s-1.927-.365-2.656-1.094C6.614 11.927 6.25 11.042 6.25 10c0-.404.078-.82.234-1.25H5v5c0 .352.12.648.361.889.241.24.537.361.889.361h7.5c.352 0 .648-.12.889-.361.24-.241.361-.537.361-.889v-5Z"></path>
  </symbol>
  <symbol xmlns="http://www.w3.org/2000/svg" viewBox="0 0 21 21" id="youtube">
    <title>Icon: Youtube</title>
    <path d="m12.183 10.325-2.358-1.1c-.206-.096-.375.01-.375.239v2.072c0 .228.169.335.375.24l2.357-1.1c.207-.097.207-.255.001-.351ZM10.5.42C4.933.42.42 4.933.42 10.5S4.933 20.58 10.5 20.58s10.08-4.513 10.08-10.08S16.067.42 10.5.42Zm0 14.175c-5.16 0-5.25-.465-5.25-4.095s.09-4.095 5.25-4.095 5.25.465 5.25 4.095-.09 4.095-5.25 4.095Z"></path>
  </symbol>
  <symbol xmlns="http://www.w3.org/2000/svg" viewBox="0 0 20 20" id="facebook">
    <title>Icon: Facebook</title>
    <path d="M10.001.002C4.479.002.002 4.479.002 10.001c0 4.99 3.656 9.126 8.437 9.879v-6.988h-2.54v-2.891h2.54V7.798c0-2.508 1.493-3.891 3.776-3.891 1.094 0 2.24.195 2.24.195v2.459h-1.264c-1.24 0-1.628.772-1.628 1.563v1.875h2.771l-.443 2.891h-2.328v6.988C16.344 19.129 20 14.992 20 10.001 20 4.479 15.523.002 10.001.002Z"></path>
  </symbol>
</svg>
