<svg width="14" height="14" viewBox="0 0 14 14" fill="none" xmlns="http://www.w3.org/2000/svg">
<path fill-rule="evenodd" clip-rule="evenodd" d="M6.99996 1.16667C5.76228 1.16667 4.5753 1.65833 3.70013 2.5335C2.82496 3.40867 2.33329 4.59566 2.33329 5.83333C2.33329 7.64053 3.50914 9.39415 4.79843 10.7551C5.43115 11.4229 6.06585 11.9697 6.54302 12.3497C6.72061 12.4911 6.87572 12.6089 6.99996 12.7007C7.1242 12.6089 7.27931 12.4911 7.4569 12.3497C7.93407 11.9697 8.56877 11.4229 9.20149 10.7551C10.4908 9.39415 11.6666 7.64053 11.6666 5.83333C11.6666 4.59566 11.175 3.40867 10.2998 2.5335C9.42462 1.65833 8.23764 1.16667 6.99996 1.16667ZM6.99996 13.4167C6.67638 13.902 6.67624 13.9019 6.67607 13.9018L6.6744 13.9007L6.67051 13.8981L6.65715 13.8891C6.64579 13.8813 6.62959 13.8703 6.60887 13.8559C6.56744 13.8272 6.5079 13.7854 6.43284 13.7312C6.28278 13.6228 6.07034 13.4646 5.81627 13.2623C5.30907 12.8584 4.63127 12.275 3.95149 11.5574C2.61578 10.1475 1.16663 8.10947 1.16663 5.83333C1.16663 4.28624 1.78121 2.80251 2.87517 1.70854C3.96913 0.614581 5.45286 0 6.99996 0C8.54706 0 10.0308 0.614581 11.1247 1.70854C12.2187 2.80251 12.8333 4.28624 12.8333 5.83333C12.8333 8.10947 11.3841 10.1475 10.0484 11.5574C9.36865 12.275 8.69085 12.8584 8.18365 13.2623C7.92958 13.4646 7.71714 13.6228 7.56708 13.7312C7.49202 13.7854 7.43248 13.8272 7.39105 13.8559C7.37033 13.8703 7.35413 13.8813 7.34277 13.8891L7.32941 13.8981L7.32552 13.9007L7.32429 13.9015C7.32412 13.9016 7.32353 13.902 6.99996 13.4167ZM6.99996 13.4167L7.32353 13.902C7.12759 14.0327 6.87201 14.0324 6.67607 13.9018L6.99996 13.4167Z" fill="white"/>
<path fill-rule="evenodd" clip-rule="evenodd" d="M6.99996 4.66667C6.35563 4.66667 5.83329 5.189 5.83329 5.83333C5.83329 6.47767 6.35563 7 6.99996 7C7.64429 7 8.16663 6.47767 8.16663 5.83333C8.16663 5.189 7.64429 4.66667 6.99996 4.66667ZM4.66663 5.83333C4.66663 4.54467 5.71129 3.5 6.99996 3.5C8.28862 3.5 9.33329 4.54467 9.33329 5.83333C9.33329 7.122 8.28862 8.16667 6.99996 8.16667C5.71129 8.16667 4.66663 7.122 4.66663 5.83333Z" fill="white"/>
</svg>
